0
SECTION
2
HEADER
0
ENDSEC
0
SECTION
2
TABLES
0
TABLE
2
LTYPE
0
LTYPE
2
Continuous
70
0
3
Solid line
72
65
73
0
40
0.000000
0
ENDTAB
0
TABLE
2
LAYER
0
LAYER
2
0
70
0
62
7
6
Continuous
0
ENDTAB
0
TABLE
2
STYLE
0
STYLE
2
Standard
3
Arial
70
0
71
0
40
5.000000
41
1.000000
42
5.000000
50
0.000000
0
ENDTAB
0
TABLE
2
DIMSTYLE
0
DIMSTYLE
2
Standard
70
0
3

4

5

6
CLOSEDFILLED
7
CLOSEDFILLED
40
1.000000
41
2.000000
42
1.000000
43
5.000000
44
2.000000
45
0.000000
46
0.000000
47
0.000000
48
0.000000
140
5.000000
141
2.000000
142
0.000000
143
25.400000
144
1.000000
145
0.000000
146
1.000000
147
2.000000
71
0
72
0
73
0
74
1
75
0
76
0
77
0
78
0
170
0
171
4
172
0
173
1
174
0
175
0
176
0
177
-2
178
-2
271
4
272
4
273
1
274
4
275
0
280
0
281
0
282
0
283
1
288
0
0
ENDTAB
0
ENDSEC
0
SECTION
2
BLOCKS
0
ENDSEC
0
SECTION
2
ENTITIES
0
POLYLINE
8
0
6
Continuous
70
0
66
 1
10
0.0
20
0.0
0
VERTEX
8
0
10
11.144315
20
4.591837
0
VERTEX
8
0
10
19.453353
20
4.591837
0
VERTEX
8
0
10
20.392903
20
4.602086
0
VERTEX
8
0
10
21.280066
20
4.632835
0
VERTEX
8
0
10
22.114841
20
4.684083
0
VERTEX
8
0
10
22.897230
20
4.755831
0
VERTEX
8
0
10
23.627232
20
4.848078
0
VERTEX
8
0
10
24.304847
20
4.960824
0
VERTEX
8
0
10
24.930075
20
5.094069
0
VERTEX
8
0
10
25.502915
20
5.247813
0
VERTEX
8
0
10
26.035897
20
5.439140
0
VERTEX
8
0
10
26.541545
20
5.648688
0
VERTEX
8
0
10
27.019862
20
5.876458
0
VERTEX
8
0
10
27.470845
20
6.122449
0
VERTEX
8
0
10
27.894497
20
6.386662
0
VERTEX
8
0
10
28.290816
20
6.669096
0
VERTEX
8
0
10
28.659803
20
6.969752
0
VERTEX
8
0
10
29.001458
20
7.288630
0
VERTEX
8
0
10
29.445609
20
7.780612
0
VERTEX
8
0
10
29.866983
20
8.309038
0
VERTEX
8
0
10
30.265579
20
8.873907
0
VERTEX
8
0
10
30.641399
20
9.475219
0
VERTEX
8
0
10
30.994442
20
10.112974
0
VERTEX
8
0
10
31.324708
20
10.787172
0
VERTEX
8
0
10
31.632198
20
11.497813
0
VERTEX
8
0
10
31.916910
20
12.244898
0
VERTEX
8
0
10
32.156068
20
13.048925
0
VERTEX
8
0
10
32.363338
20
13.893950
0
VERTEX
8
0
10
32.538721
20
14.779974
0
VERTEX
8
0
10
32.682216
20
15.706997
0
VERTEX
8
0
10
32.793823
20
16.675018
0
VERTEX
8
0
10
32.873542
20
17.684038
0
VERTEX
8
0
10
32.921374
20
18.734056
0
VERTEX
8
0
10
32.937318
20
19.825073
0
VERTEX
8
0
10
32.905430
20
21.312409
0
VERTEX
8
0
10
32.809767
20
22.713192
0
VERTEX
8
0
10
32.650328
20
24.027423
0
VERTEX
8
0
10
32.427114
20
25.255102
0
VERTEX
8
0
10
32.140124
20
26.396228
0
VERTEX
8
0
10
31.789359
20
27.450802
0
VERTEX
8
0
10
31.374818
20
28.418823
0
VERTEX
8
0
10
30.896501
20
29.300292
0
VERTEX
8
0
10
30.373770
20
30.086097
0
VERTEX
8
0
10
29.825984
20
30.803571
0
VERTEX
8
0
10
29.253143
20
31.452715
0
VERTEX
8
0
10
28.655248
20
32.033528
0
VERTEX
8
0
10
28.032298
20
32.546009
0
VERTEX
8
0
10
27.384293
20
32.990160
0
VERTEX
8
0
10
26.711234
20
33.365980
0
VERTEX
8
0
10
26.013120
20
33.673469
0
VERTEX
8
0
10
25.445973
20
33.878462
0
VERTEX
8
0
10
24.801385
20
34.056122
0
VERTEX
8
0
10
24.079355
20
34.206450
0
VERTEX
8
0
10
23.279883
20
34.329446
0
VERTEX
8
0
10
22.402970
20
34.425109
0
VERTEX
8
0
10
21.448615
20
34.493440
0
VERTEX
8
0
10
20.416819
20
34.534439
0
VERTEX
8
0
10
19.307580
20
34.548105
0
VERTEX
8
0
10
11.144315
20
34.548105
0
VERTEX
8
0
10
11.144315
20
4.591837
0
SEQEND
8
0
0
POLYLINE
8
0
6
Continuous
70
0
66
 1
10
0.0
20
0.0
0
VERTEX
8
0
10
5.896501
20
0.000000
0
VERTEX
8
0
10
5.896501
20
39.139942
0
VERTEX
8
0
10
19.380466
20
39.139942
0
VERTEX
8
0
10
20.494260
20
39.129692
0
VERTEX
8
0
10
21.539723
20
39.098943
0
VERTEX
8
0
10
22.516855
20
39.047695
0
VERTEX
8
0
10
23.425656
20
38.975948
0
VERTEX
8
0
10
24.266126
20
38.883701
0
VERTEX
8
0
10
25.038265
20
38.770955
0
VERTEX
8
0
10
25.742074
20
38.637710
42
-0.002011
0
VERTEX
8
0
10
27.200938
20
38.281250
0
VERTEX
8
0
10
27.994716
20
38.037536
0
VERTEX
8
0
10
28.758883
20
37.752824
0
VERTEX
8
0
10
29.493440
20
37.427114
0
VERTEX
8
0
10
30.198387
20
37.060405
0
VERTEX
8
0
10
30.873724
20
36.652697
0
VERTEX
8
0
10
31.519452
20
36.203991
0
VERTEX
8
0
10
32.135569
20
35.714286
0
VERTEX
8
0
10
32.876959
20
35.036671
0
VERTEX
8
0
10
33.570517
20
34.315780
0
VERTEX
8
0
10
34.216245
20
33.551613
0
VERTEX
8
0
10
34.814140
20
32.744169
0
VERTEX
8
0
10
35.364204
20
31.893449
0
VERTEX
8
0
10
35.866436
20
30.999453
0
VERTEX
8
0
10
36.320836
20
30.062181
0
VERTEX
8
0
10
36.727405
20
29.081633
0
VERTEX
8
0
10
37.086142
20
28.025920
0
VERTEX
8
0
10
37.397048
20
26.936042
0
VERTEX
8
0
10
37.660122
20
25.811999
0
VERTEX
8
0
10
37.875364
20
24.653790
0
VERTEX
8
0
10
38.042775
20
23.461416
0
VERTEX
8
0
10
38.162354
20
22.234876
0
VERTEX
8
0
10
38.234102
20
20.974171
0
VERTEX
8
0
10
38.258017
20
19.679300
0
VERTEX
8
0
10
38.240935
20
18.599672
0
VERTEX
8
0
10
38.189687
20
17.547376
0
VERTEX
8
0
10
38.104273
20
16.522413
0
VERTEX
8
0
10
37.984694
20
15.524781
0
VERTEX
8
0
10
37.830949
20
14.554483
0
VERTEX
8
0
10
37.643039
20
13.611516
0
VERTEX
8
0
10
37.420964
20
12.695882
0
VERTEX
8
0
10
37.164723
20
11.807580
0
VERTEX
8
0
10
36.900510
20
10.969388
0
VERTEX
8
0
10
36.618076
20
10.167638
0
VERTEX
8
0
10
36.317420
20
9.402332
0
VERTEX
8
0
10
35.998542
20
8.673469
0
VERTEX
8
0
10
35.661443
20
7.981050
0
VERTEX
8
0
10
35.306122
20
7.325073
0
VERTEX
8
0
10
34.932580
20
6.705539
0
VERTEX
8
0
10
34.540816
20
6.122449
0
VERTEX
8
0
10
34.134247
20
5.573524
0
VERTEX
8
0
10
33.716290
20
5.056487
0
VERTEX
8
0
10
33.286944
20
4.571337
0
VERTEX
8
0
10
32.846210
20
4.118076
0
VERTEX
8
0
10
32.394087
20
3.696702
0
VERTEX
8
0
10
31.930576
20
3.307216
0
VERTEX
8
0
10
31.455676
20
2.949617
42
-0.006237
0
VERTEX
8
0
10
30.481961
20
2.306168
0
VERTEX
8
0
10
29.967201
20
2.008929
0
VERTEX
8
0
10
29.425109
20
1.732188
0
VERTEX
8
0
10
28.855685
20
1.475948
0
VERTEX
8
0
10
28.258929
20
1.240206
0
VERTEX
8
0
10
27.634840
20
1.024964
0
VERTEX
8
0
10
26.983418
20
0.830220
0
VERTEX
8
0
10
26.304665
20
0.655977
0
VERTEX
8
0
10
25.616800
20
0.502232
0
VERTEX
8
0
10
24.901603
20
0.368987
0
VERTEX
8
0
10
24.159074
20
0.256241
0
VERTEX
8
0
10
23.389213
20
0.163994
0
VERTEX
8
0
10
22.592019
20
0.092247
0
VERTEX
8
0
10
21.767493
20
0.040999
0
VERTEX
8
0
10
20.915634
20
0.010250
0
VERTEX
8
0
10
20.036443
20
0.000000
0
VERTEX
8
0
10
5.896501
20
0.000000
0
SEQEND
8
0
0
POLYLINE
8
0
6
Continuous
70
0
66
 1
10
0.0
20
0.0
0
VERTEX
8
0
10
48.518463
20
16.836735
0
VERTEX
8
0
10
64.261903
20
16.836735
0
VERTEX
8
0
10
64.169657
20
17.702259
0
VERTEX
8
0
10
64.038689
20
18.513120
0
VERTEX
8
0
10
63.869001
20
19.269315
0
VERTEX
8
0
10
63.660592
20
19.970845
0
VERTEX
8
0
10
63.413461
20
20.617711
0
VERTEX
8
0
10
63.127610
20
21.209913
0
VERTEX
8
0
10
62.803039
20
21.747449
0
VERTEX
8
0
10
62.439746
20
22.230321
0
VERTEX
8
0
10
61.837295
20
22.879464
0
VERTEX
8
0
10
61.196124
20
23.442055
0
VERTEX
8
0
10
60.516231
20
23.918094
0
VERTEX
8
0
10
59.797618
20
24.307580
0
VERTEX
8
0
10
59.040284
20
24.610514
0
VERTEX
8
0
10
58.244229
20
24.826895
0
VERTEX
8
0
10
57.409453
20
24.956724
0
VERTEX
8
0
10
56.535956
20
25.000000
0
VERTEX
8
0
10
55.714846
20
24.964696
0
VERTEX
8
0
10
54.927902
20
24.858783
0
VERTEX
8
0
10
54.175123
20
24.682261
0
VERTEX
8
0
10
53.456510
20
24.435131
0
VERTEX
8
0
10
52.772062
20
24.117392
0
VERTEX
8
0
10
52.121780
20
23.729045
0
VERTEX
8
0
10
51.505663
20
23.270089
0
VERTEX
8
0
10
50.923711
20
22.740525
0
VERTEX
8
0
10
50.407813
20
22.169962
0
VERTEX
8
0
10
49.953412
20
21.551567
0
VERTEX
8
0
10
49.560510
20
20.885341
0
VERTEX
8
0
10
49.229105
20
20.171283
0
VERTEX
8
0
10
48.959198
20
19.409393
0
VERTEX
8
0
10
48.750788
20
18.599672
0
VERTEX
8
0
10
48.603877
20
17.742119
0
VERTEX
8
0
10
48.518463
20
16.836735
0
SEQEND
8
0
0
POLYLINE
8
0
6
Continuous
70
0
66
 1
10
0.0
20
0.0
0
VERTEX
8
0
10
64.261903
20
9.183673
0
VERTEX
8
0
10
69.218172
20
8.527697
0
VERTEX
8
0
10
68.878795
20
7.465151
0
VERTEX
8
0
10
68.480198
20
6.464103
0
VERTEX
8
0
10
68.022381
20
5.524554
0
VERTEX
8
0
10
67.505344
20
4.646501
0
VERTEX
8
0
10
66.929086
20
3.829947
0
VERTEX
8
0
10
66.293609
20
3.074891
0
VERTEX
8
0
10
65.598912
20
2.381332
0
VERTEX
8
0
10
64.844994
20
1.749271
0
VERTEX
8
0
10
64.017051
20
1.202624
0
VERTEX
8
0
10
63.136721
20
0.728863
0
VERTEX
8
0
10
62.204004
20
0.327988
0
VERTEX
8
0
10
61.218901
20
0.000000
0
VERTEX
8
0
10
60.181410
20
-0.255102
0
VERTEX
8
0
10
59.091532
20
-0.437318
0
VERTEX
8
0
10
57.949267
20
-0.546647
0
VERTEX
8
0
10
56.754615
20
-0.583090
0
VERTEX
8
0
10
55.245641
20
-0.525009
0
VERTEX
8
0
10
53.816386
20
-0.350765
0
VERTEX
8
0
10
52.466851
20
-0.060359
0
VERTEX
8
0
10
51.197035
20
0.346210
0
VERTEX
8
0
10
50.006938
20
0.868941
0
VERTEX
8
0
10
48.896561
20
1.507835
0
VERTEX
8
0
10
47.865903
20
2.262892
0
VERTEX
8
0
10
46.914965
20
3.134111
0
VERTEX
8
0
10
46.060828
20
4.147686
0
VERTEX
8
0
10
45.320577
20
5.256924
0
VERTEX
8
0
10
44.694210
20
6.461826
0
VERTEX
8
0
10
44.181729
20
7.762391
0
VERTEX
8
0
10
43.783132
20
9.158619
0
VERTEX
8
0
10
43.498420
20
10.650510
0
VERTEX
8
0
10
43.327592
20
12.238065
0
VERTEX
8
0
10
43.270650
20
13.921283
0
VERTEX
8
0
10
43.328731
20
15.639805
0
VERTEX
8
0
10
43.502975
20
17.260386
0
VERTEX
8
0
10
43.793381
20
18.783027
0
VERTEX
8
0
10
44.199950
20
20.207726
0
VERTEX
8
0
10
44.722682
20
21.534484
0
VERTEX
8
0
10
45.361576
20
22.763302
0
VERTEX
8
0
10
46.116632
20
23.894178
0
VERTEX
8
0
10
46.987851
20
24.927114
0
VERTEX
8
0
10
47.933095
20
25.866664
0
VERTEX
8
0
10
48.946670
20
26.680940
0
VERTEX
8
0
10
50.028576
20
27.369944
0
VERTEX
8
0
10
51.178813
20
27.933673
0
VERTEX
8
0
10
52.397381
20
28.372130
0
VERTEX
8
0
10
53.684280
20
28.685313
0
VERTEX
8
0
10
55.039509
20
28.873223
0
VERTEX
8
0
10
56.463070
20
28.935860
0
VERTEX
8
0
10
57.852465
20
28.875501
0
VERTEX
8
0
10
59.178084
20
28.694424
0
VERTEX
8
0
10
60.439928
20
28.392629
0
VERTEX
8
0
10
61.637997
20
27.970117
0
VERTEX
8
0
10
62.772290
20
27.426886
0
VERTEX
8
0
10
63.842807
20
26.762937
0
VERTEX
8
0
10
64.849549
20
25.978271
0
VERTEX
8
0
10
65.792516
20
25.072886
0
VERTEX
8
0
10
66.629569
20
24.058172
0
VERTEX
8
0
10
67.355016
20
22.945517
0
VERTEX
8
0
10
67.968855
20
21.734922
0
VERTEX
8
0
10
68.471087
20
20.426385
0
VERTEX
8
0
10
68.861712
20
19.019907
0
VERTEX
8
0
10
69.140730
20
17.515488
0
VERTEX
8
0
10
69.308141
20
15.913129
0
VERTEX
8
0
10
69.363944
20
14.212828
42
-0.016811
0
VERTEX
8
0
10
69.322946
20
13.310860
42
-0.002948
0
VERTEX
8
0
10
69.291058
20
12.900875
0
VERTEX
8
0
10
48.226918
20
12.900875
0
VERTEX
8
0
10
48.315748
20
11.768859
0
VERTEX
8
0
10
48.472909
20
10.705175
0
VERTEX
8
0
10
48.698401
20
9.709821
0
VERTEX
8
0
10
48.992224
20
8.782799
0
VERTEX
8
0
10
49.354378
20
7.924107
0
VERTEX
8
0
10
49.784863
20
7.133746
0
VERTEX
8
0
10
50.283678
20
6.411716
0
VERTEX
8
0
10
50.850825
20
5.758017
0
VERTEX
8
0
10
51.453276
20
5.177205
0
VERTEX
8
0
10
52.094447
20
4.673834
0
VERTEX
8
0
10
52.774340
20
4.247905
0
VERTEX
8
0
10
53.492953
20
3.899417
0
VERTEX
8
0
10
54.250287
20
3.628371
0
VERTEX
8
0
10
55.046342
20
3.434767
0
VERTEX
8
0
10
55.881118
20
3.318604
0
VERTEX
8
0
10
56.754615
20
3.279883
0
VERTEX
8
0
10
57.398064
20
3.301522
0
VERTEX
8
0
10
58.016459
20
3.366436
0
VERTEX
8
0
10
58.609799
20
3.474626
0
VERTEX
8
0
10
59.178084
20
3.626093
0
VERTEX
8
0
10
59.721315
20
3.820836
0
VERTEX
8
0
10
60.239491
20
4.058856
0
VERTEX
8
0
10
60.732612
20
4.340151
0
VERTEX
8
0
10
61.200679
20
4.664723
0
VERTEX
8
0
10
61.678995
20
5.054209
0
VERTEX
8
0
10
62.129979
20
5.493805
0
VERTEX
8
0
10
62.553631
20
5.983509
0
VERTEX
8
0
10
62.949950
20
6.523324
0
VERTEX
8
0
10
63.318937
20
7.113247
0
VERTEX
8
0
10
63.660592
20
7.753280
0
VERTEX
8
0
10
63.974914
20
8.443422
0
VERTEX
8
0
10
64.261903
20
9.183673
0
SEQEND
8
0
0
POLYLINE
8
0
6
Continuous
70
0
66
 1
10
0.0
20
0.0
0
VERTEX
8
0
10
76.673953
20
0.000000
0
VERTEX
8
0
10
76.673953
20
28.352770
0
VERTEX
8
0
10
81.047131
20
28.352770
0
VERTEX
8
0
10
81.047131
20
24.271137
0
VERTEX
8
0
10
81.388785
20
24.785897
0
VERTEX
8
0
10
81.757772
20
25.273324
0
VERTEX
8
0
10
82.154091
20
25.733418
0
VERTEX
8
0
10
82.577743
20
26.166181
0
VERTEX
8
0
10
83.028727
20
26.571611
0
VERTEX
8
0
10
83.507043
20
26.949708
0
VERTEX
8
0
10
84.012692
20
27.300474
0
VERTEX
8
0
10
84.545673
20
27.623907
0
VERTEX
8
0
10
85.118514
20
27.931396
0
VERTEX
8
0
10
85.707298
20
28.197886
0
VERTEX
8
0
10
86.312027
20
28.423378
0
VERTEX
8
0
10
86.932699
20
28.607872
0
VERTEX
8
0
10
87.569315
20
28.751367
0
VERTEX
8
0
10
88.221875
20
28.853863
0
VERTEX
8
0
10
88.890380
20
28.915361
0
VERTEX
8
0
10
89.574827
20
28.935860
0
VERTEX
8
0
10
90.358355
20
28.915361
0
VERTEX
8
0
10
91.105440
20
28.853863
0
VERTEX
8
0
10
91.816081
20
28.751367
0
VERTEX
8
0
10
92.490279
20
28.607872
0
VERTEX
8
0
10
93.128034
20
28.423378
0
VERTEX
8
0
10
93.729346
20
28.197886
0
VERTEX
8
0
10
94.294215
20
27.931396
0
VERTEX
8
0
10
94.822641
20
27.623907
0
VERTEX
8
0
10
95.297541
20
27.279974
0
VERTEX
8
0
10
95.738275
20
26.904155
0
VERTEX
8
0
10
96.144844
20
26.496447
0
VERTEX
8
0
10
96.517247
20
26.056851
0
VERTEX
8
0
10
96.855485
20
25.585368
0
VERTEX
8
0
10
97.159558
20
25.081997
0
VERTEX
8
0
10
97.429465
20
24.546738
0
VERTEX
8
0
10
97.665206
20
23.979592
0
VERTEX
8
0
10
98.535287
20
25.141217
0
VERTEX
8
0
10
99.469142
20
26.147959
0
VERTEX
8
0
10
100.466773
20
26.999818
0
VERTEX
8
0
10
101.528180
20
27.696793
0
VERTEX
8
0
10
102.653362
20
28.238885
0
VERTEX
8
0
10
103.842320
20
28.626093
0
VERTEX
8
0
10
105.095053
20
28.858418
0
VERTEX
8
0
10
106.411562
20
28.935860
0
VERTEX
8
0
10
107.438803
20
28.899417
0
VERTEX
8
0
10
108.406824
20
28.790087
0
VERTEX
8
0
10
109.315625
20
28.607872
0
VERTEX
8
0
10
110.165206
20
28.352770
0
VERTEX
8
0
10
110.955567
20
28.024781
0
VERTEX
8
0
10
111.686708
20
27.623907
0
VERTEX
8
0
10
112.358628
20
27.150146
0
VERTEX
8
0
10
112.971329
20
26.603499
0
VERTEX
8
0
10
113.483811
20
25.980548
0
VERTEX
8
0
10
113.927961
20
25.277879
0
VERTEX
8
0
10
114.303781
20
24.495490
0
VERTEX
8
0
10
114.611271
20
23.633382
0
VERTEX
8
0
10
114.850429
20
22.691554
0
VERTEX
8
0
10
115.021256
20
21.670007
0
VERTEX
8
0
10
115.123752
20
20.568741
0
VERTEX
8
0
10
115.157918
20
19.387755
0
VERTEX
8
0
10
115.157918
20
0.000000
0
VERTEX
8
0
10
110.347422
20
0.000000
0
VERTEX
8
0
10
110.347422
20
17.784257
0
VERTEX
8
0
10
110.340589
20
18.486926
0
VERTEX
8
0
10
110.320090
20
19.137208
0
VERTEX
8
0
10
110.285924
20
19.735104
0
VERTEX
8
0
10
110.238093
20
20.280612
0
VERTEX
8
0
10
110.176595
20
20.773734
0
VERTEX
8
0
10
110.101431
20
21.214468
0
VERTEX
8
0
10
110.012601
20
21.602815
0
VERTEX
8
0
10
109.910104
20
21.938776
0
VERTEX
8
0
10
109.788248
20
22.241709
0
VERTEX
8
0
10
109.641336
20
22.530977
0
VERTEX
8
0
10
109.469370
20
22.806578
0
VERTEX
8
0
10
109.272349
20
23.068513
0
VERTEX
8
0
10
109.050274
20
23.316782
0
VERTEX
8
0
10
108.803144
20
23.551385
0
VERTEX
8
0
10
108.530959
20
23.772321
0
VERTEX
8
0
10
108.233720
20
23.979592
0
VERTEX
8
0
10
107.917120
20
24.167502
0
VERTEX
8
0
10
107.586854
20
24.330357
0
VERTEX
8
0
10
107.242921
20
24.468158
0
VERTEX
8
0
10
106.885323
20
24.580904
0
VERTEX
8
0
10
106.514058
20
24.668595
0
VERTEX
8
0
10
106.129128
20
24.731232
0
VERTEX
8
0
10
105.730531
20
24.768814
0
VERTEX
8
0
10
105.318268
20
24.781341
0
VERTEX
8
0
10
104.587127
20
24.749453
0
VERTEX
8
0
10
103.887874
20
24.653790
0
VERTEX
8
0
10
103.220509
20
24.494351
0
VERTEX
8
0
10
102.585031
20
24.271137
0
VERTEX
8
0
10
101.981442
20
23.984147
0
VERTEX
8
0
10
101.409740
20
23.633382
0
VERTEX
8
0
10
100.869926
20
23.218841
0
VERTEX
8
0
10
100.361999
20
22.740525
0
VERTEX
8
0
10
99.883683
20
22.210960
0
VERTEX
8
0
10
99.469142
20
21.606232
0
VERTEX
8
0
10
99.118377
20
20.926339
0
VERTEX
8
0
10
98.831387
20
20.171283
0
VERTEX
8
0
10
98.608173
20
19.341062
0
VERTEX
8
0
10
98.448734
20
18.435678
0
VERTEX
8
0
10
98.353071
20
17.455129
0
VERTEX
8
0
10
98.321183
20
16.399417
0
VERTEX
8
0
10
98.321183
20
0.000000
0
VERTEX
8
0
10
93.510687
20
0.000000
0
VERTEX
8
0
10
93.510687
20
18.367347
0
VERTEX
8
0
10
93.493605
20
19.144042
0
VERTEX
8
0
10
93.442357
20
19.870627
0
VERTEX
8
0
10
93.356943
20
20.547103
0
VERTEX
8
0
10
93.237364
20
21.173469
0
VERTEX
8
0
10
93.083619
20
21.749727
0
VERTEX
8
0
10
92.895709
20
22.275875
0
VERTEX
8
0
10
92.673634
20
22.751913
0
VERTEX
8
0
10
92.417393
20
23.177843
0
VERTEX
8
0
10
92.101932
20
23.553663
0
VERTEX
8
0
10
91.738639
20
23.879373
0
VERTEX
8
0
10
91.327515
20
24.154974
0
VERTEX
8
0
10
90.868559
20
24.380466
0
VERTEX
8
0
10
90.361772
20
24.555849
0
VERTEX
8
0
10
89.807152
20
24.681122
0
VERTEX
8
0
10
89.204702
20
24.756286
0
VERTEX
8
0
10
88.554419
20
24.781341
0
VERTEX
8
0
10
88.048771
20
24.764258
0
VERTEX
8
0
10
87.552233
20
24.713010
0
VERTEX
8
0
10
87.064806
20
24.627597
0
VERTEX
8
0
10
86.586489
20
24.508017
0
VERTEX
8
0
10
86.117284
20
24.354273
0
VERTEX
8
0
10
85.657189
20
24.166363
0
VERTEX
8
0
10
85.206205
20
23.944288
0
VERTEX
8
0
10
84.764332
20
23.688047
0
VERTEX
8
0
10
84.360041
20
23.399918
0
VERTEX
8
0
10
83.985359
20
23.082179
0
VERTEX
8
0
10
83.640288
20
22.734831
0
VERTEX
8
0
10
83.324827
20
22.357872
0
VERTEX
8
0
10
83.038976
20
21.951303
0
VERTEX
8
0
10
82.782736
20
21.515124
0
VERTEX
8
0
10
82.556105
20
21.049335
42
0.007448
0
VERTEX
8
0
10
82.154091
20
20.015261
0
VERTEX
8
0
10
81.976431
20
19.419643
0
VERTEX
8
0
10
81.826103
20
18.767083
0
VERTEX
8
0
10
81.703107
20
18.057580
0
VERTEX
8
0
10
81.607444
20
17.291135
0
VERTEX
8
0
10
81.539113
20
16.467748
0
VERTEX
8
0
10
81.498115
20
15.587418
0
VERTEX
8
0
10
81.484448
20
14.650146
0
VERTEX
8
0
10
81.484448
20
0.000000
0
VERTEX
8
0
10
76.673953
20
0.000000
0
SEQEND
8
0
0
POLYLINE
8
0
6
Continuous
70
0
66
 1
10
0.0
20
0.0
0
VERTEX
8
0
10
125.529155
20
14.139942
0
VERTEX
8
0
10
125.565598
20
12.816600
0
VERTEX
8
0
10
125.674927
20
11.579810
0
VERTEX
8
0
10
125.857143
20
10.429574
0
VERTEX
8
0
10
126.112245
20
9.365889
0
VERTEX
8
0
10
126.440233
20
8.388757
0
VERTEX
8
0
10
126.841108
20
7.498178
0
VERTEX
8
0
10
127.314869
20
6.694151
0
VERTEX
8
0
10
127.861516
20
5.976676
0
VERTEX
8
0
10
128.482188
20
5.344616
0
VERTEX
8
0
10
129.141582
20
4.796829
0
VERTEX
8
0
10
129.839696
20
4.333318
0
VERTEX
8
0
10
130.576531
20
3.954082
0
VERTEX
8
0
10
131.352086
20
3.659120
0
VERTEX
8
0
10
132.166363
20
3.448433
0
VERTEX
8
0
10
133.019360
20
3.322021
0
VERTEX
8
0
10
133.911079
20
3.279883
0
VERTEX
8
0
10
134.768632
20
3.322021
0
VERTEX
8
0
10
135.592019
20
3.448433
0
VERTEX
8
0
10
136.381241
20
3.659120
0
VERTEX
8
0
10
137.136297
20
3.954082
0
VERTEX
8
0
10
137.857188
20
4.333318
0
VERTEX
8
0
10
138.543914
20
4.796829
0
VERTEX
8
0
10
139.196474
20
5.344616
0
VERTEX
8
0
10
139.814869
20
5.976676
0
VERTEX
8
0
10
140.378599
20
6.712372
0
VERTEX
8
0
10
140.867165
20
7.534621
0
VERTEX
8
0
10
141.280567
20
8.443422
0
VERTEX
8
0
10
141.618805
20
9.438776
0
VERTEX
8
0
10
141.881879
20
10.520681
0
VERTEX
8
0
10
142.069789
20
11.689140
0
VERTEX
8
0
10
142.182535
20
12.944151
0
VERTEX
8
0
10
142.220117
20
14.285714
0
VERTEX
8
0
10
142.182535
20
15.557808
0
VERTEX
8
0
10
142.069789
20
16.750182
0
VERTEX
8
0
10
141.881879
20
17.862837
0
VERTEX
8
0
10
141.618805
20
18.895773
0
VERTEX
8
0
10
141.280567
20
19.848989
0
VERTEX
8
0
10
140.867165
20
20.722485
0
VERTEX
8
0
10
140.378599
20
21.516263
0
VERTEX
8
0
10
139.814869
20
22.230321
0
VERTEX
8
0
10
139.196474
20
22.862382
0
VERTEX
8
0
10
138.543914
20
23.410168
0
VERTEX
8
0
10
137.857188
20
23.873679
0
VERTEX
8
0
10
137.136297
20
24.252915
0
VERTEX
8
0
10
136.381241
20
24.547877
0
VERTEX
8
0
10
135.592019
20
24.758564
0
VERTEX
8
0
10
134.768632
20
24.884976
0
VERTEX
8
0
10
133.911079
20
24.927114
0
VERTEX
8
0
10
133.019360
20
24.884976
0
VERTEX
8
0
10
132.166363
20
24.758564
0
VERTEX
8
0
10
131.352086
20
24.547877
0
VERTEX
8
0
10
130.576531
20
24.252915
0
VERTEX
8
0
10
129.839696
20
23.873679
0
VERTEX
8
0
10
129.141582
20
23.410168
0
VERTEX
8
0
10
128.482188
20
22.862382
0
VERTEX
8
0
10
127.861516
20
22.230321
0
VERTEX
8
0
10
127.314869
20
21.513985
0
VERTEX
8
0
10
126.841108
20
20.713375
0
VERTEX
8
0
10
126.440233
20
19.828489
0
VERTEX
8
0
10
126.112245
20
18.859329
0
VERTEX
8
0
10
125.857143
20
17.805895
0
VERTEX
8
0
10
125.674927
20
16.668185
0
VERTEX
8
0
10
125.565598
20
15.446201
0
VERTEX
8
0
10
125.529155
20
14.139942
0
SEQEND
8
0
0
POLYLINE
8
0
6
Continuous
70
0
66
 1
10
0.0
20
0.0
0
VERTEX
8
0
10
120.572886
20
14.139942
0
VERTEX
8
0
10
120.641217
20
16.044096
0
VERTEX
8
0
10
120.846210
20
17.820700
0
VERTEX
8
0
10
121.187864
20
19.469752
0
VERTEX
8
0
10
121.666181
20
20.991254
0
VERTEX
8
0
10
122.281159
20
22.385204
0
VERTEX
8
0
10
123.032799
20
23.651603
0
VERTEX
8
0
10
123.921101
20
24.790452
0
VERTEX
8
0
10
124.946064
20
25.801749
0
VERTEX
8
0
10
125.899280
20
26.536306
0
VERTEX
8
0
10
126.900328
20
27.172923
0
VERTEX
8
0
10
127.949207
20
27.711598
0
VERTEX
8
0
10
129.045918
20
28.152332
0
VERTEX
8
0
10
130.190461
20
28.495126
0
VERTEX
8
0
10
131.382835
20
28.739978
0
VERTEX
8
0
10
132.623041
20
28.886890
0
VERTEX
8
0
10
133.911079
20
28.935860
0
VERTEX
8
0
10
135.335778
20
28.876640
0
VERTEX
8
0
10
136.694424
20
28.698980
0
VERTEX
8
0
10
137.987017
20
28.402879
0
VERTEX
8
0
10
139.213557
20
27.988338
0
VERTEX
8
0
10
140.374043
20
27.455357
0
VERTEX
8
0
10
141.468477
20
26.803936
0
VERTEX
8
0
10
142.496857
20
26.034074
0
VERTEX
8
0
10
143.459184
20
25.145773
0
VERTEX
8
0
10
144.330403
20
24.134475
0
VERTEX
8
0
10
145.085459
20
23.032070
0
VERTEX
8
0
10
145.724353
20
21.838557
0
VERTEX
8
0
10
146.247085
20
20.553936
0
VERTEX
8
0
10
146.653653
20
19.178207
0
VERTEX
8
0
10
146.944060
20
17.711370
0
VERTEX
8
0
10
147.118304
20
16.153426
0
VERTEX
8
0
10
147.176385
20
14.504373
0
VERTEX
8
0
10
147.150191
20
13.174198
0
VERTEX
8
0
10
147.071611
20
11.916910
0
VERTEX
8
0
10
146.940643
20
10.732507
0
VERTEX
8
0
10
146.757289
20
9.620991
0
VERTEX
8
0
10
146.521547
20
8.582362
0
VERTEX
8
0
10
146.233418
20
7.616618
0
VERTEX
8
0
10
145.892903
20
6.723761
0
VERTEX
8
0
10
145.500000
20
5.903790
0
VERTEX
8
0
10
145.058127
20
5.158983
0
VERTEX
8
0
10
144.570700
20
4.455175
0
VERTEX
8
0
10
144.037719
20
3.792365
0
VERTEX
8
0
10
143.459184
20
3.170554
0
VERTEX
8
0
10
142.835095
20
2.589741
0
VERTEX
8
0
10
142.165452
20
2.049927
0
VERTEX
8
0
10
141.450255
20
1.551112
0
VERTEX
8
0
10
140.689504
20
1.093294
0
VERTEX
8
0
10
139.913949
20
0.700392
0
VERTEX
8
0
10
139.117894
20
0.359876
0
VERTEX
8
0
10
138.301339
20
0.071747
0
VERTEX
8
0
10
137.464286
20
-0.163994
0
VERTEX
8
0
10
136.606733
20
-0.347349
0
VERTEX
8
0
10
135.728681
20
-0.478316
0
VERTEX
8
0
10
134.830129
20
-0.556897
0
VERTEX
8
0
10
133.911079
20
-0.583090
0
VERTEX
8
0
10
132.453353
20
-0.525009
0
VERTEX
8
0
10
131.068513
20
-0.350765
0
VERTEX
8
0
10
129.756560
20
-0.060359
0
VERTEX
8
0
10
128.517493
20
0.346210
0
VERTEX
8
0
10
127.351312
20
0.868941
0
VERTEX
8
0
10
126.258017
20
1.507835
0
VERTEX
8
0
10
125.237609
20
2.262892
0
VERTEX
8
0
10
124.290087
20
3.134111
0
VERTEX
8
0
10
123.418868
20
4.151102
0
VERTEX
8
0
10
122.663812
20
5.270590
0
VERTEX
8
0
10
122.024918
20
6.492575
0
VERTEX
8
0
10
121.502187
20
7.817055
0
VERTEX
8
0
10
121.095618
20
9.244032
0
VERTEX
8
0
10
120.805211
20
10.773506
0
VERTEX
8
0
10
120.630968
20
12.405476
0
VERTEX
8
0
10
120.572886
20
14.139942
0
SEQEND
8
0
0
POLYLINE
8
0
6
Continuous
70
0
66
 1
10
0.0
20
0.0
0
VERTEX
8
0
10
177.335768
20
4.227405
0
VERTEX
8
0
10
177.991745
20
0.000000
42
-0.013754
0
VERTEX
8
0
10
176.522630
20
-0.222075
42
-0.016612
0
VERTEX
8
0
10
175.176511
20
-0.341655
42
-0.013277
0
VERTEX
8
0
10
174.347430
20
-0.364431
0
VERTEX
8
0
10
173.726757
20
-0.351904
0
VERTEX
8
0
10
173.140250
20
-0.314322
0
VERTEX
8
0
10
172.587909
20
-0.251685
0
VERTEX
8
0
10
172.069733
20
-0.163994
0
VERTEX
8
0
10
171.585722
20
-0.051248
0
VERTEX
8
0
10
171.135877
20
0.086552
0
VERTEX
8
0
10
170.720198
20
0.249408
0
VERTEX
8
0
10
170.338683
20
0.437318
0
VERTEX
8
0
10
169.987918
20
0.646866
0
VERTEX
8
0
10
169.664485
20
0.874636
0
VERTEX
8
0
10
169.368385
20
1.120627
0
VERTEX
8
0
10
169.099616
20
1.384840
0
VERTEX
8
0
10
168.858180
20
1.667274
0
VERTEX
8
0
10
168.644077
20
1.967930
0
VERTEX
8
0
10
168.457306
20
2.286808
0
VERTEX
8
0
10
168.297867
20
2.623907
0
VERTEX
8
0
10
168.161205
20
2.999727
0
VERTEX
8
0
10
168.042765
20
3.471210
0
VERTEX
8
0
10
167.942546
20
4.038356
0
VERTEX
8
0
10
167.860549
20
4.701166
0
VERTEX
8
0
10
167.796774
20
5.459639
0
VERTEX
8
0
10
167.751220
20
6.313776
0
VERTEX
8
0
10
167.723887
20
7.263575
0
VERTEX
8
0
10
167.714777
20
8.309038
0
VERTEX
8
0
10
167.714777
20
24.635569
0
VERTEX
8
0
10
164.216234
20
24.635569
0
VERTEX
8
0
10
164.216234
20
28.352770
0
VERTEX
8
0
10
167.714777
20
28.352770
0
VERTEX
8
0
10
167.714777
20
35.349854
0
VERTEX
8
0
10
172.525272
20
38.265306
0
VERTEX
8
0
10
172.525272
20
28.352770
0
VERTEX
8
0
10
177.335768
20
28.352770
0
VERTEX
8
0
10
177.335768
20
24.635569
0
VERTEX
8
0
10
172.525272
20
24.635569
0
VERTEX
8
0
10
172.525272
20
7.944606
42
0.012795
0
VERTEX
8
0
10
172.556021
20
6.618987
0
VERTEX
8
0
10
172.579937
20
6.268222
0
VERTEX
8
0
10
172.610686
20
5.963010
0
VERTEX
8
0
10
172.648268
20
5.703353
0
VERTEX
8
0
10
172.692683
20
5.489249
0
VERTEX
8
0
10
172.743931
20
5.320700
42
0.052811
0
VERTEX
8
0
10
173.003589
20
4.914131
42
0.035144
0
VERTEX
8
0
10
173.222248
20
4.677250
42
0.033513
0
VERTEX
8
0
10
173.477350
20
4.467702
0
VERTEX
8
0
10
173.618567
20
4.373178
0
VERTEX
8
0
10
173.771172
20
4.304847
0
VERTEX
8
0
10
173.937444
20
4.245627
0
VERTEX
8
0
10
174.117382
20
4.195517
0
VERTEX
8
0
10
174.310987
20
4.154519
42
0.024965
0
VERTEX
8
0
10
174.739194
20
4.099854
42
0.019923
0
VERTEX
8
0
10
175.222065
20
4.081633
42
0.016972
0
VERTEX
8
0
10
176.151366
20
4.118076
42
0.010357
0
VERTEX
8
0
10
177.335768
20
4.227405
0
SEQEND
8
0
0
POLYLINE
8
0
6
Continuous
70
0
66
 1
10
0.0
20
0.0
0
VERTEX
8
0
10
186.685131
20
16.836735
0
VERTEX
8
0
10
202.428571
20
16.836735
0
VERTEX
8
0
10
202.336325
20
17.702259
0
VERTEX
8
0
10
202.205357
20
18.513120
0
VERTEX
8
0
10
202.035669
20
19.269315
0
VERTEX
8
0
10
201.827259
20
19.970845
0
VERTEX
8
0
10
201.580129
20
20.617711
0
VERTEX
8
0
10
201.294278
20
21.209913
0
VERTEX
8
0
10
200.969707
20
21.747449
0
VERTEX
8
0
10
200.606414
20
22.230321
0
VERTEX
8
0
10
200.003963
20
22.879464
0
VERTEX
8
0
10
199.362792
20
23.442055
0
VERTEX
8
0
10
198.682899
20
23.918094
0
VERTEX
8
0
10
197.964286
20
24.307580
0
VERTEX
8
0
10
197.206952
20
24.610514
0
VERTEX
8
0
10
196.410897
20
24.826895
0
VERTEX
8
0
10
195.576121
20
24.956724
0
VERTEX
8
0
10
194.702624
20
25.000000
0
VERTEX
8
0
10
193.881514
20
24.964696
0
VERTEX
8
0
10
193.094570
20
24.858783
0
VERTEX
8
0
10
192.341791
20
24.682261
0
VERTEX
8
0
10
191.623178
20
24.435131
0
VERTEX
8
0
10
190.938730
20
24.117392
0
VERTEX
8
0
10
190.288448
20
23.729045
0
VERTEX
8
0
10
189.672331
20
23.270089
0
VERTEX
8
0
10
189.090379
20
22.740525
0
VERTEX
8
0
10
188.574481
20
22.169962
0
VERTEX
8
0
10
188.120080
20
21.551567
0
VERTEX
8
0
10
187.727177
20
20.885341
0
VERTEX
8
0
10
187.395773
20
20.171283
0
VERTEX
8
0
10
187.125866
20
19.409393
0
VERTEX
8
0
10
186.917456
20
18.599672
0
VERTEX
8
0
10
186.770545
20
17.742119
0
VERTEX
8
0
10
186.685131
20
16.836735
0
SEQEND
8
0
0
POLYLINE
8
0
6
Continuous
70
0
66
 1
10
0.0
20
0.0
0
VERTEX
8
0
10
202.428571
20
9.183673
0
VERTEX
8
0
10
207.384840
20
8.527697
0
VERTEX
8
0
10
207.045463
20
7.465151
0
VERTEX
8
0
10
206.646866
20
6.464103
0
VERTEX
8
0
10
206.189049
20
5.524554
0
VERTEX
8
0
10
205.672012
20
4.646501
0
VERTEX
8
0
10
205.095754
20
3.829947
0
VERTEX
8
0
10
204.460277
20
3.074891
0
VERTEX
8
0
10
203.765579
20
2.381332
0
VERTEX
8
0
10
203.011662
20
1.749271
0
VERTEX
8
0
10
202.183719
20
1.202624
0
VERTEX
8
0
10
201.303389
20
0.728863
0
VERTEX
8
0
10
200.370672
20
0.327988
0
VERTEX
8
0
10
199.385569
20
0.000000
0
VERTEX
8
0
10
198.348078
20
-0.255102
0
VERTEX
8
0
10
197.258200
20
-0.437318
0
VERTEX
8
0
10
196.115935
20
-0.546647
0
VERTEX
8
0
10
194.921283
20
-0.583090
0
VERTEX
8
0
10
193.412309
20
-0.525009
0
VERTEX
8
0
10
191.983054
20
-0.350765
0
VERTEX
8
0
10
190.633519
20
-0.060359
0
VERTEX
8
0
10
189.363703
20
0.346210
0
VERTEX
8
0
10
188.173606
20
0.868941
0
VERTEX
8
0
10
187.063229
20
1.507835
0
VERTEX
8
0
10
186.032571
20
2.262892
0
VERTEX
8
0
10
185.081633
20
3.134111
0
VERTEX
8
0
10
184.227496
20
4.147686
0
VERTEX
8
0
10
183.487245
20
5.256924
0
VERTEX
8
0
10
182.860878
20
6.461826
0
VERTEX
8
0
10
182.348397
20
7.762391
0
VERTEX
8
0
10
181.949800
20
9.158619
0
VERTEX
8
0
10
181.665087
20
10.650510
0
VERTEX
8
0
10
181.494260
20
12.238065
0
VERTEX
8
0
10
181.437318
20
13.921283
0
VERTEX
8
0
10
181.495399
20
15.639805
0
VERTEX
8
0
10
181.669643
20
17.260386
0
VERTEX
8
0
10
181.960049
20
18.783027
0
VERTEX
8
0
10
182.366618
20
20.207726
0
VERTEX
8
0
10
182.889349
20
21.534484
0
VERTEX
8
0
10
183.528243
20
22.763302
0
VERTEX
8
0
10
184.283300
20
23.894178
0
VERTEX
8
0
10
185.154519
20
24.927114
0
VERTEX
8
0
10
186.099763
20
25.866664
0
VERTEX
8
0
10
187.113338
20
26.680940
0
VERTEX
8
0
10
188.195244
20
27.369944
0
VERTEX
8
0
10
189.345481
20
27.933673
0
VERTEX
8
0
10
190.564049
20
28.372130
0
VERTEX
8
0
10
191.850948
20
28.685313
0
VERTEX
8
0
10
193.206177
20
28.873223
0
VERTEX
8
0
10
194.629738
20
28.935860
0
VERTEX
8
0
10
196.019133
20
28.875501
0
VERTEX
8
0
10
197.344752
20
28.694424
0
VERTEX
8
0
10
198.606596
20
28.392629
0
VERTEX
8
0
10
199.804665
20
27.970117
0
VERTEX
8
0
10
200.938958
20
27.426886
0
VERTEX
8
0
10
202.009475
20
26.762937
0
VERTEX
8
0
10
203.016217
20
25.978271
0
VERTEX
8
0
10
203.959184
20
25.072886
0
VERTEX
8
0
10
204.796237
20
24.058172
0
VERTEX
8
0
10
205.521684
20
22.945517
0
VERTEX
8
0
10
206.135523
20
21.734922
0
VERTEX
8
0
10
206.637755
20
20.426385
0
VERTEX
8
0
10
207.028380
20
19.019907
0
VERTEX
8
0
10
207.307398
20
17.515488
0
VERTEX
8
0
10
207.474809
20
15.913129
0
VERTEX
8
0
10
207.530612
20
14.212828
42
-0.016811
0
VERTEX
8
0
10
207.489614
20
13.310860
42
-0.002948
0
VERTEX
8
0
10
207.457726
20
12.900875
0
VERTEX
8
0
10
186.393586
20
12.900875
0
VERTEX
8
0
10
186.482416
20
11.768859
0
VERTEX
8
0
10
186.639577
20
10.705175
0
VERTEX
8
0
10
186.865069
20
9.709821
0
VERTEX
8
0
10
187.158892
20
8.782799
0
VERTEX
8
0
10
187.521046
20
7.924107
0
VERTEX
8
0
10
187.951531
20
7.133746
0
VERTEX
8
0
10
188.450346
20
6.411716
0
VERTEX
8
0
10
189.017493
20
5.758017
0
VERTEX
8
0
10
189.619944
20
5.177205
0
VERTEX
8
0
10
190.261115
20
4.673834
0
VERTEX
8
0
10
190.941008
20
4.247905
0
VERTEX
8
0
10
191.659621
20
3.899417
0
VERTEX
8
0
10
192.416955
20
3.628371
0
VERTEX
8
0
10
193.213010
20
3.434767
0
VERTEX
8
0
10
194.047786
20
3.318604
0
VERTEX
8
0
10
194.921283
20
3.279883
0
VERTEX
8
0
10
195.564732
20
3.301522
0
VERTEX
8
0
10
196.183127
20
3.366436
0
VERTEX
8
0
10
196.776467
20
3.474626
0
VERTEX
8
0
10
197.344752
20
3.626093
0
VERTEX
8
0
10
197.887983
20
3.820836
0
VERTEX
8
0
10
198.406159
20
4.058856
0
VERTEX
8
0
10
198.899280
20
4.340151
0
VERTEX
8
0
10
199.367347
20
4.664723
0
VERTEX
8
0
10
199.845663
20
5.054209
0
VERTEX
8
0
10
200.296647
20
5.493805
0
VERTEX
8
0
10
200.720299
20
5.983509
0
VERTEX
8
0
10
201.116618
20
6.523324
0
VERTEX
8
0
10
201.485605
20
7.113247
0
VERTEX
8
0
10
201.827259
20
7.753280
0
VERTEX
8
0
10
202.141582
20
8.443422
0
VERTEX
8
0
10
202.428571
20
9.183673
0
SEQEND
8
0
0
POLYLINE
8
0
6
Continuous
70
0
66
 1
10
0.0
20
0.0
0
VERTEX
8
0
10
209.213795
20
0.000000
0
VERTEX
8
0
10
219.563649
20
14.650146
0
VERTEX
8
0
10
210.015544
20
28.352770
0
VERTEX
8
0
10
215.919334
20
28.352770
0
VERTEX
8
0
10
220.365398
20
21.647230
42
-0.010396
0
VERTEX
8
0
10
221.896010
20
19.214650
42
-0.005983
0
VERTEX
8
0
10
222.260442
20
18.586006
42
0.009035
0
VERTEX
8
0
10
224.447031
20
21.647230
0
VERTEX
8
0
10
229.257526
20
28.352770
0
VERTEX
8
0
10
235.088430
20
28.352770
0
VERTEX
8
0
10
225.467439
20
14.650146
0
VERTEX
8
0
10
235.744407
20
0.000000
0
VERTEX
8
0
10
229.913503
20
0.000000
0
VERTEX
8
0
10
224.009713
20
8.746356
0
VERTEX
8
0
10
222.697760
20
10.787172
0
VERTEX
8
0
10
215.044699
20
0.000000
0
VERTEX
8
0
10
209.213795
20
0.000000
0
SEQEND
8
0
0
POLYLINE
8
0
6
Continuous
70
0
66
 1
10
0.0
20
0.0
0
VERTEX
8
0
10
249.835768
20
4.227405
0
VERTEX
8
0
10
250.491745
20
0.000000
42
-0.013754
0
VERTEX
8
0
10
249.022630
20
-0.222075
42
-0.016612
0
VERTEX
8
0
10
247.676511
20
-0.341655
42
-0.013277
0
VERTEX
8
0
10
246.847430
20
-0.364431
0
VERTEX
8
0
10
246.226757
20
-0.351904
0
VERTEX
8
0
10
245.640250
20
-0.314322
0
VERTEX
8
0
10
245.087909
20
-0.251685
0
VERTEX
8
0
10
244.569733
20
-0.163994
0
VERTEX
8
0
10
244.085722
20
-0.051248
0
VERTEX
8
0
10
243.635877
20
0.086552
0
VERTEX
8
0
10
243.220198
20
0.249408
0
VERTEX
8
0
10
242.838683
20
0.437318
0
VERTEX
8
0
10
242.487918
20
0.646866
0
VERTEX
8
0
10
242.164485
20
0.874636
0
VERTEX
8
0
10
241.868385
20
1.120627
0
VERTEX
8
0
10
241.599616
20
1.384840
0
VERTEX
8
0
10
241.358180
20
1.667274
0
VERTEX
8
0
10
241.144077
20
1.967930
0
VERTEX
8
0
10
240.957306
20
2.286808
0
VERTEX
8
0
10
240.797867
20
2.623907
0
VERTEX
8
0
10
240.661205
20
2.999727
0
VERTEX
8
0
10
240.542765
20
3.471210
0
VERTEX
8
0
10
240.442546
20
4.038356
0
VERTEX
8
0
10
240.360549
20
4.701166
0
VERTEX
8
0
10
240.296774
20
5.459639
0
VERTEX
8
0
10
240.251220
20
6.313776
0
VERTEX
8
0
10
240.223887
20
7.263575
0
VERTEX
8
0
10
240.214777
20
8.309038
0
VERTEX
8
0
10
240.214777
20
24.635569
0
VERTEX
8
0
10
236.716234
20
24.635569
0
VERTEX
8
0
10
236.716234
20
28.352770
0
VERTEX
8
0
10
240.214777
20
28.352770
0
VERTEX
8
0
10
240.214777
20
35.349854
0
VERTEX
8
0
10
245.025272
20
38.265306
0
VERTEX
8
0
10
245.025272
20
28.352770
0
VERTEX
8
0
10
249.835768
20
28.352770
0
VERTEX
8
0
10
249.835768
20
24.635569
0
VERTEX
8
0
10
245.025272
20
24.635569
0
VERTEX
8
0
10
245.025272
20
7.944606
42
0.012795
0
VERTEX
8
0
10
245.056021
20
6.618987
0
VERTEX
8
0
10
245.079937
20
6.268222
0
VERTEX
8
0
10
245.110686
20
5.963010
0
VERTEX
8
0
10
245.148268
20
5.703353
0
VERTEX
8
0
10
245.192683
20
5.489249
0
VERTEX
8
0
10
245.243931
20
5.320700
42
0.052811
0
VERTEX
8
0
10
245.503589
20
4.914131
42
0.035144
0
VERTEX
8
0
10
245.722248
20
4.677250
42
0.033513
0
VERTEX
8
0
10
245.977350
20
4.467702
0
VERTEX
8
0
10
246.118567
20
4.373178
0
VERTEX
8
0
10
246.271172
20
4.304847
0
VERTEX
8
0
10
246.437444
20
4.245627
0
VERTEX
8
0
10
246.617382
20
4.195517
0
VERTEX
8
0
10
246.810987
20
4.154519
42
0.024965
0
VERTEX
8
0
10
247.239194
20
4.099854
42
0.019923
0
VERTEX
8
0
10
247.722065
20
4.081633
42
0.016972
0
VERTEX
8
0
10
248.651366
20
4.118076
42
0.010357
0
VERTEX
8
0
10
249.835768
20
4.227405
0
SEQEND
8
0
0
ENDSEC
0
EOF
